<?xml version="1.0" encoding="utf-8"?>
<!-- Generator: Adobe Illustrator 25.0.1, SVG Export Plug-In . SVG Version: 6.00 Build 0)  -->
<svg version="1.1" id="Layer_1" xmlns="http://www.w3.org/2000/svg" xmlns:xlink="http://www.w3.org/1999/xlink" x="0px" y="0px"
	 viewBox="0 0 207 41" style="enable-background:new 0 0 207 41;" xml:space="preserve">
<style type="text/css">
	.st0{fill:#232323;}
	.st1{fill:url(#SVGID_1_);}
	.st2{fill:#FFFFFF;}
	.st3{fill:#F2F2F2;}
	.st4{fill:none;}
	.st5{opacity:0.3;}
</style>
<g>
	<path class="st0" d="M72.4,29.7c-1.5,0.8-3,1.3-4.5,1.6c-1.6,0.3-3.2,0.5-4.8,0.5c-1.7,0-3.4-0.3-4.8-0.8c-1.5-0.5-2.7-1.3-3.8-2.4
		c-1.1-1-1.9-2.3-2.5-3.7c-0.6-1.5-0.9-3.1-0.9-4.9c0-1.8,0.3-3.4,0.9-4.9c0.6-1.5,1.4-2.7,2.5-3.7c1.1-1,2.3-1.8,3.8-2.4
		c1.5-0.5,3.1-0.8,4.8-0.8c1.8,0,3.4,0.2,4.9,0.6c1.5,0.4,2.8,1.2,4,2.2L68.5,15c-0.7-0.7-1.4-1.2-2.3-1.6c-0.8-0.4-1.9-0.5-3.2-0.5
		c-1.1,0-2,0.2-2.9,0.5c-0.9,0.4-1.6,0.9-2.2,1.5c-0.6,0.6-1.1,1.4-1.4,2.3c-0.3,0.9-0.5,1.8-0.5,2.9c0,1.1,0.2,2,0.5,2.9
		c0.3,0.9,0.8,1.6,1.4,2.3c0.6,0.6,1.3,1.1,2.2,1.5c0.9,0.4,1.8,0.5,2.9,0.5c1.1,0,2-0.1,2.8-0.4c0.8-0.2,1.4-0.5,1.9-0.7v-3.6h-4
		V18h8.7V29.7z"/>
	<path class="st0" d="M76.2,15.9h4.7v2.5H81c0.5-0.9,1.1-1.7,1.8-2.1c0.7-0.5,1.6-0.7,2.6-0.7c0.3,0,0.5,0,0.8,0
		c0.3,0,0.5,0.1,0.8,0.1V20c-0.3-0.1-0.7-0.2-1-0.2c-0.3-0.1-0.7-0.1-1-0.1c-0.9,0-1.6,0.1-2.1,0.4c-0.5,0.3-0.9,0.6-1.2,1.1
		c-0.3,0.5-0.5,1-0.6,1.6c-0.1,0.6-0.1,1.3-0.1,2.1v6.4h-4.7V15.9z"/>
	<path class="st0" d="M98.7,29.3L98.7,29.3c-0.6,0.8-1.3,1.4-2.2,1.8c-0.9,0.4-1.8,0.5-2.8,0.5c-0.7,0-1.4-0.1-2.1-0.3
		c-0.7-0.2-1.2-0.5-1.8-0.9c-0.5-0.4-0.9-0.9-1.2-1.5c-0.3-0.6-0.4-1.3-0.4-2.1c0-0.9,0.2-1.6,0.5-2.2c0.3-0.6,0.8-1.1,1.3-1.5
		c0.6-0.4,1.2-0.7,1.9-0.9c0.7-0.2,1.5-0.4,2.2-0.5c0.8-0.1,1.5-0.2,2.3-0.2c0.8,0,1.5,0,2.1,0c0-0.8-0.3-1.5-0.9-2
		c-0.6-0.5-1.3-0.7-2.1-0.7c-0.8,0-1.5,0.2-2.1,0.5c-0.6,0.3-1.2,0.8-1.7,1.3L89.2,18c0.9-0.8,1.9-1.4,3.1-1.8
		c1.2-0.4,2.4-0.6,3.7-0.6c1.4,0,2.5,0.2,3.4,0.5c0.9,0.3,1.6,0.9,2.1,1.5c0.5,0.7,0.9,1.5,1.1,2.5c0.2,1,0.3,2.1,0.3,3.4v7.8h-4.4
		V29.3z M97.5,24.5c-0.4,0-0.8,0-1.3,0c-0.5,0-1.1,0.1-1.5,0.3c-0.5,0.1-0.9,0.4-1.3,0.7c-0.3,0.3-0.5,0.7-0.5,1.2
		c0,0.6,0.2,1,0.7,1.3c0.5,0.3,1,0.4,1.5,0.4c0.5,0,0.9-0.1,1.3-0.2c0.4-0.1,0.8-0.3,1.2-0.5c0.3-0.2,0.6-0.5,0.8-0.9
		c0.2-0.4,0.3-0.8,0.3-1.3v-1H97.5z"/>
	<path class="st0" d="M122.1,31.2h-4.4v-2h-0.1c-0.2,0.3-0.4,0.6-0.7,0.8c-0.3,0.3-0.7,0.5-1.1,0.8c-0.4,0.2-0.9,0.4-1.4,0.6
		c-0.5,0.1-1,0.2-1.5,0.2c-1.1,0-2.2-0.2-3.1-0.6c-0.9-0.4-1.7-0.9-2.4-1.6c-0.7-0.7-1.2-1.5-1.5-2.5c-0.4-1-0.5-2-0.5-3.2
		c0-1.1,0.2-2.1,0.5-3.1c0.3-1,0.8-1.8,1.4-2.6c0.6-0.8,1.3-1.4,2.2-1.8c0.9-0.5,1.8-0.7,2.9-0.7c1,0,1.9,0.2,2.8,0.5
		c0.9,0.3,1.6,0.8,2.1,1.6h0.1V7.4h4.7V31.2z M117.7,23.6c0-1.2-0.3-2.1-1-2.8c-0.7-0.7-1.6-1.1-2.8-1.1c-1.2,0-2.1,0.4-2.8,1.1
		c-0.7,0.7-1,1.7-1,2.8c0,1.2,0.3,2.1,1,2.8c0.7,0.7,1.6,1.1,2.8,1.1c1.2,0,2.1-0.4,2.8-1.1C117.4,25.7,117.7,24.7,117.7,23.6z"/>
	<path class="st0" d="M140.4,28.6c-0.8,1-1.7,1.7-2.9,2.2c-1.2,0.5-2.4,0.8-3.6,0.8c-1.2,0-2.3-0.2-3.3-0.6c-1-0.4-1.9-0.9-2.7-1.6
		c-0.8-0.7-1.4-1.6-1.8-2.5c-0.4-1-0.7-2.1-0.7-3.3c0-1.2,0.2-2.3,0.7-3.3c0.4-1,1-1.8,1.8-2.5c0.8-0.7,1.7-1.2,2.7-1.6
		c1-0.4,2.2-0.6,3.3-0.6c1.1,0,2.1,0.2,3,0.6c0.9,0.4,1.7,0.9,2.3,1.6c0.6,0.7,1.1,1.6,1.4,2.5c0.3,1,0.5,2.1,0.5,3.3V25h-11
		c0.2,0.9,0.6,1.6,1.2,2.2c0.6,0.5,1.4,0.8,2.3,0.8c0.8,0,1.4-0.2,2-0.5c0.5-0.3,1-0.8,1.4-1.3L140.4,28.6z M136.4,21.8
		c0-0.8-0.2-1.5-0.8-2.1c-0.5-0.6-1.3-0.9-2.1-0.9c-0.5,0-1,0.1-1.4,0.3c-0.4,0.2-0.7,0.4-1,0.6c-0.3,0.3-0.5,0.6-0.7,0.9
		c-0.2,0.3-0.2,0.7-0.3,1.1H136.4z"/>
	<path class="st0" d="M142.3,8.9h5.4l3.6,14.3h0.1l4.7-14.3h4.6l4.6,14.7h0.1L169,8.9h5l-6.5,22.4H163l-4.9-15.5H158l-4.9,15.5h-4.2
		L142.3,8.9z"/>
	<path class="st0" d="M184,29.3L184,29.3c-0.6,0.8-1.3,1.4-2.2,1.8c-0.9,0.4-1.8,0.5-2.8,0.5c-0.7,0-1.4-0.1-2.1-0.3
		c-0.7-0.2-1.2-0.5-1.8-0.9c-0.5-0.4-0.9-0.9-1.2-1.5c-0.3-0.6-0.4-1.3-0.4-2.1c0-0.9,0.2-1.6,0.5-2.2c0.3-0.6,0.8-1.1,1.3-1.5
		c0.6-0.4,1.2-0.7,1.9-0.9c0.7-0.2,1.5-0.4,2.2-0.5c0.8-0.1,1.5-0.2,2.3-0.2c0.8,0,1.5,0,2.1,0c0-0.8-0.3-1.5-0.9-2
		c-0.6-0.5-1.3-0.7-2.1-0.7c-0.8,0-1.5,0.2-2.1,0.5c-0.6,0.3-1.2,0.8-1.7,1.3l-2.5-2.6c0.9-0.8,1.9-1.4,3.1-1.8
		c1.2-0.4,2.4-0.6,3.7-0.6c1.4,0,2.5,0.2,3.4,0.5c0.9,0.3,1.6,0.9,2.1,1.5c0.5,0.7,0.9,1.5,1.1,2.5c0.2,1,0.3,2.1,0.3,3.4v7.8H184
		V29.3z M182.9,24.5c-0.4,0-0.8,0-1.3,0c-0.5,0-1.1,0.1-1.5,0.3c-0.5,0.1-0.9,0.4-1.3,0.7c-0.3,0.3-0.5,0.7-0.5,1.2
		c0,0.6,0.2,1,0.7,1.3c0.5,0.3,1,0.4,1.5,0.4c0.5,0,0.9-0.1,1.3-0.2c0.4-0.1,0.8-0.3,1.2-0.5c0.3-0.2,0.6-0.5,0.8-0.9
		c0.2-0.4,0.3-0.8,0.3-1.3v-1H182.9z"/>
	<path class="st0" d="M200.2,33.7c-0.3,0.8-0.6,1.5-0.9,2.2c-0.3,0.6-0.7,1.2-1.1,1.6c-0.5,0.4-1,0.8-1.7,1
		c-0.7,0.2-1.6,0.3-2.7,0.3c-1.2,0-2.4-0.2-3.5-0.6l0.6-3.9c0.7,0.3,1.5,0.5,2.2,0.5c0.5,0,1-0.1,1.3-0.2c0.3-0.1,0.6-0.3,0.8-0.5
		c0.2-0.2,0.4-0.5,0.6-0.8c0.1-0.3,0.3-0.7,0.5-1.1l0.3-0.9l-6.7-15.5h5.1l3.9,10.1h0.1l3.4-10.1h4.9L200.2,33.7z"/>
</g>
<linearGradient id="SVGID_1_" gradientUnits="userSpaceOnUse" x1="20.3296" y1="8.547008e-02" x2="20.3296" y2="40.0855">
	<stop  offset="0" style="stop-color:#7BF08B"/>
	<stop  offset="1" style="stop-color:#1ADD5D"/>
</linearGradient>
<path class="st1" d="M32.5,40.1H8.1c-4.3,0-7.8-3.5-7.8-7.8V7.9c0-4.3,3.5-7.8,7.8-7.8l24.4,0c4.3,0,7.8,3.5,7.8,7.8v24.5
	C40.3,36.6,36.8,40.1,32.5,40.1z"/>
<g>
	<path class="st2" d="M32.8,31.5c-2.6,2.1-9.8-3.6-11.9-5.3c-0.1-0.1-0.1-0.1-0.2-0.2c0,0,0,0,0,0l-0.2-0.2c0,0,0,0,0,0
		c-0.1,0-0.1-0.1-0.2-0.1c-0.3-0.2-0.5-0.3-0.6-0.4c0,0,0,0,0,0c-0.1-0.1-0.2-0.1-0.2-0.1c0,0,0,0,0,0c0,0,0,0,0,0c0,0,0,0,0,0
		c-0.9-0.5-2.6-1.1-5.2-1.1c-0.2,0-0.3,0-0.5,0c-0.1,0-0.1,0-0.2,0c0,0-0.1,0-0.1,0c0,0-0.1,0-0.1,0c0,0-0.1,0-0.1,0
		c0,0-0.1,0-0.1,0c0,0-0.1,0-0.1,0c0,0-0.1,0-0.1,0c0,0-0.1,0-0.1,0c-0.1,0-0.1,0-0.2,0c0,0-0.1,0-0.1,0c0,0-0.1,0-0.1,0
		c0,0-0.1,0-0.1,0c0,0-0.1,0-0.1,0c0,0-0.1,0-0.1,0c0,0-0.1,0-0.1,0c0,0,0,0,0,0c0,0-0.1,0-0.1,0c0,0-0.1,0-0.1,0.1c0,0-0.1,0-0.1,0
		c0,0,0,0,0,0c0,0-0.1,0-0.1,0.1c0,0,0,0,0,0c0,0-0.1,0-0.1,0c0,0-0.1,0-0.1,0c0,0-0.1,0-0.1,0.1c0,0-0.1,0-0.1,0c0,0-0.1,0-0.1,0.1
		c0,0-0.1,0-0.1,0c-0.1,0.1-0.2,0.1-0.3,0.2c0,0-0.1,0-0.1,0.1c0,0-0.1,0-0.1,0.1c0,0-0.1,0-0.1,0.1c0,0,0,0,0,0c0,0-0.1,0-0.1,0.1
		c0,0-0.1,0-0.1,0.1c0,0-0.1,0-0.1,0.1c0,0,0,0,0,0c0,0-0.1,0.1-0.1,0.1c0,0-0.1,0-0.1,0.1c-0.1,0-0.1,0.1-0.2,0.1
		c-0.1,0-0.1,0.1-0.2,0.1c-0.2,0.2-0.5,0.4-0.7,0.6c0,0-0.1,0.1-0.1,0.1c0,0,0,0,0,0c0,0-0.1,0.1-0.1,0.1c-0.2,0.3-0.5,0.5-0.6,0.8
		c0,0,0,0-0.1,0.1c-0.1,0.1-0.1,0.2-0.2,0.2c0,0,0,0,0,0.1c0,0,0,0,0,0.1c0,0,0,0,0,0.1c0,0,0,0,0,0.1c0,0,0,0,0,0.1c0,0,0,0,0,0.1
		c0,0,0,0,0,0.1c0,0,0,0,0,0.1c0,0,0,0,0,0c0,0,0,0,0,0c0,0,0,0,0,0c0,0,0,0,0,0c0,0,0,0,0,0c0,0,0,0,0,0c0,0,0,0,0,0c0,0,0,0,0,0
		c0,0,0,0,0,0c0,0,0,0,0,0c0,0,0,0,0,0c0,0,0,0,0,0c0,0,0,0,0,0c0.5-4.5,5-12.3,5-12.3s3.6-6.9,7-8.6c0.7-0.4,1.5-0.4,2.2,0
		c3.3,1.8,7,8.6,7,8.6S35.8,29,32.8,31.5z"/>
	<path class="st2" d="M19.7,25.3c0,0-0.1-0.1-0.2-0.1c0,0,0,0,0,0C19.6,25.2,19.6,25.2,19.7,25.3z"/>
	<path class="st3" d="M19.4,26.5c-0.4,0.3-0.9,0.7-1.4,1.1c0,0,0,0,0,0c-2.4,1.9-6.2,4.4-8.7,4.3c-0.5,0-1-0.2-1.4-0.5
		c-0.5-0.4-0.7-1.1-0.7-2c0-0.1,0-0.3,0-0.4v0c0-0.1,0-0.2,0-0.3c0,0,0,0,0,0c0,0,0,0,0,0c0,0,0,0,0,0c0,0,0,0,0,0c0,0,0,0,0,0
		c0,0,0,0,0,0c0,0,0,0,0,0c0,0,0,0,0,0c0.4-1.3,3.3-3.5,6.6-3.5C17.6,25.1,19.3,26.4,19.4,26.5z"/>
	<path class="st2" d="M20.3,25.7C20.3,25.7,20.3,25.7,20.3,25.7c-0.1,0.1-0.5,0.4-0.9,0.8c-0.2-0.1-1.8-1.4-5.6-1.4
		c-3.3-0.1-6.2,2.1-6.6,3.5c0,0,0,0,0,0c0,0,0,0,0,0c0,0,0,0,0,0c0,0,0,0,0,0c0,0,0,0,0,0c0,0,0,0,0-0.1c0,0,0,0,0-0.1
		c0,0,0,0,0-0.1c0,0,0,0,0-0.1c0,0,0,0,0-0.1c0,0,0,0,0-0.1c0,0,0,0,0-0.1c0,0,0,0,0-0.1c0-0.1,0.1-0.2,0.2-0.2c0,0,0,0,0.1-0.1
		c0.2-0.2,0.4-0.5,0.6-0.8c0,0,0.1-0.1,0.1-0.1c0,0,0,0,0,0c0,0,0.1-0.1,0.1-0.1c0.2-0.2,0.4-0.4,0.7-0.6c0.1,0,0.1-0.1,0.2-0.1
		c0.1,0,0.1-0.1,0.2-0.1c0,0,0.1,0,0.1-0.1c0,0,0.1-0.1,0.1-0.1c0,0,0,0,0,0c0,0,0.1-0.1,0.1-0.1c0,0,0.1,0,0.1-0.1
		c0,0,0.1,0,0.1-0.1c0,0,0,0,0,0c0,0,0.1,0,0.1-0.1c0,0,0.1,0,0.1-0.1c0,0,0.1,0,0.1-0.1c0.1-0.1,0.2-0.1,0.3-0.2c0,0,0,0,0.1,0
		c0,0,0.1,0,0.1-0.1c0,0,0.1,0,0.1,0c0,0,0.1,0,0.1-0.1c0,0,0.1,0,0.1,0c0,0,0.1,0,0.1,0c0,0,0,0,0,0c0,0,0.1,0,0.1-0.1c0,0,0,0,0,0
		c0,0,0.1,0,0.1,0c0,0,0.1,0,0.1-0.1c0,0,0.1,0,0.1,0c0,0,0,0,0,0c0,0,0.1,0,0.1,0c0,0,0.1,0,0.1,0c0,0,0.1,0,0.1,0c0,0,0.1,0,0.1,0
		c0,0,0.1,0,0.1,0c0,0,0.1,0,0.1,0c0.1,0,0.1,0,0.2,0c0,0,0.1,0,0.1,0c0,0,0.1,0,0.1,0c0,0,0.1,0,0.1,0c0,0,0.1,0,0.1,0
		c0,0,0.1,0,0.1,0c0,0,0.1,0,0.1,0c0,0,0.1,0,0.1,0c0.1,0,0.1,0,0.2,0c0.2,0,0.3,0,0.5,0c2.6,0,4.3,0.6,5.2,1.1c0,0,0,0,0,0
		c0,0,0,0,0,0c0,0,0,0,0,0c0,0,0,0,0,0c0.1,0,0.1,0.1,0.2,0.1c0,0,0,0,0,0C19.9,25.4,20.1,25.5,20.3,25.7z"/>
	<path class="st4" d="M19.7,25.3c0,0-0.1-0.1-0.2-0.1c0,0,0,0,0,0C19.6,25.2,19.6,25.2,19.7,25.3z"/>
	<path class="st5" d="M20.3,25.7C20.3,25.7,20.3,25.7,20.3,25.7c-0.1,0.1-0.5,0.4-0.9,0.8c-0.2-0.1-1.8-1.4-5.6-1.4
		c-3.3-0.1-6.2,2.1-6.6,3.5c0,0,0,0,0,0c0,0,0,0,0,0c0,0,0,0,0,0c0,0,0,0,0,0c0,0,0,0,0,0c0,0,0,0,0-0.1c0,0,0,0,0-0.1
		c0,0,0,0,0-0.1c0,0,0,0,0-0.1c0,0,0,0,0-0.1c0,0,0,0,0-0.1c0,0,0,0,0-0.1c0,0,0,0,0-0.1c0-0.1,0.1-0.2,0.2-0.2c0,0,0,0,0.1-0.1
		c0.2-0.2,0.4-0.5,0.6-0.8c0,0,0.1-0.1,0.1-0.1c0,0,0,0,0,0c0,0,0.1-0.1,0.1-0.1c0.2-0.2,0.4-0.4,0.7-0.6c0.1,0,0.1-0.1,0.2-0.1
		c0.1,0,0.1-0.1,0.2-0.1c0,0,0.1,0,0.1-0.1c0,0,0.1-0.1,0.1-0.1c0,0,0,0,0,0c0,0,0.1-0.1,0.1-0.1c0,0,0.1,0,0.1-0.1
		c0,0,0.1,0,0.1-0.1c0,0,0,0,0,0c0,0,0.1,0,0.1-0.1c0,0,0.1,0,0.1-0.1c0,0,0.1,0,0.1-0.1c0.1-0.1,0.2-0.1,0.3-0.2c0,0,0,0,0.1,0
		c0,0,0.1,0,0.1-0.1c0,0,0.1,0,0.1,0c0,0,0.1,0,0.1-0.1c0,0,0.1,0,0.1,0c0,0,0.1,0,0.1,0c0,0,0,0,0,0c0,0,0.1,0,0.1-0.1c0,0,0,0,0,0
		c0,0,0.1,0,0.1,0c0,0,0.1,0,0.1-0.1c0,0,0.1,0,0.1,0c0,0,0,0,0,0c0,0,0.1,0,0.1,0c0,0,0.1,0,0.1,0c0,0,0.1,0,0.1,0c0,0,0.1,0,0.1,0
		c0,0,0.1,0,0.1,0c0,0,0.1,0,0.1,0c0.1,0,0.1,0,0.2,0c0,0,0.1,0,0.1,0c0,0,0.1,0,0.1,0c0,0,0.1,0,0.1,0c0,0,0.1,0,0.1,0
		c0,0,0.1,0,0.1,0c0,0,0.1,0,0.1,0c0,0,0.1,0,0.1,0c0.1,0,0.1,0,0.2,0c0.2,0,0.3,0,0.5,0c2.6,0,4.3,0.6,5.2,1.1c0,0,0,0,0,0
		c0,0,0,0,0,0c0,0,0,0,0,0c0,0,0,0,0,0c0.1,0,0.1,0.1,0.2,0.1c0,0,0,0,0,0C19.9,25.4,20.1,25.5,20.3,25.7z"/>
</g>
</svg>
